<svg width="80" height="80" viewBox="0 0 80 80" fill="none" xmlns="http://www.w3.org/2000/svg">
<rect width="79.543" height="79.3763" rx="29.1722" fill="#B3F589"/>
<mask id="mask0_314_10093" style="mask-type:alpha" maskUnits="userSpaceOnUse" x="0" y="0" width="80" height="80">
<rect x="0.000976562" width="79.543" height="79.3763" rx="29.1722" fill="#889DF0"/>
</mask>
<g mask="url(#mask0_314_10093)">
</g>
<path d="M55.9631 40.4944L43.3068 53.1507C43.1102 53.3473 42.8596 53.4812 42.5868 53.5355C42.314 53.5897 42.0313 53.5618 41.7744 53.4554C41.5174 53.349 41.2978 53.1687 41.1433 52.9375C40.9888 52.7062 40.9063 52.4344 40.9062 52.1563V40.9063H24.0312C23.6583 40.9063 23.3006 40.7581 23.0369 40.4944C22.7732 40.2307 22.625 39.873 22.625 39.5C22.625 39.1271 22.7732 38.7694 23.0369 38.5056C23.3006 38.2419 23.6583 38.0938 24.0312 38.0938H40.9062V26.8438C40.9063 26.5656 40.9888 26.2938 41.1433 26.0625C41.2978 25.8313 41.5174 25.6511 41.7744 25.5446C42.0313 25.4382 42.314 25.4103 42.5868 25.4646C42.8596 25.5188 43.1102 25.6527 43.3068 25.8493L55.9631 38.5056C56.0937 38.6362 56.1973 38.7912 56.268 38.9618C56.3386 39.1325 56.375 39.3153 56.375 39.5C56.375 39.6847 56.3386 39.8676 56.268 40.0382C56.1973 40.2088 56.0937 40.3639 55.9631 40.4944V40.4944Z" fill="#313131"/>
</svg>
