<svg width="335" height="307" viewBox="0 0 335 307" fill="none" xmlns="http://www.w3.org/2000/svg">
<path d="M111.634 253.399L85.7427 244.179L80.3613 255.587L97.9027 263.76L129.944 269.894L166.448 274.356L191.844 272.151C196.991 273.354 193.848 233.263 191.633 213.067L182.84 211.012L181.06 227.333L186.72 234.085L189.683 242.694L181.154 257.89L168.955 263.633L126.346 258.195L119.725 258.457L111.634 253.399Z" fill="#FAB18E"/>
<path d="M266.11 244.729C268.295 244.411 272.856 244.316 273.616 246.484" stroke="#AD7368" stroke-width="2.65618"/>
<path d="M202.611 100.492C205.852 92.721 225.641 99.3309 221.86 108.632C218.079 117.932 205.161 112.251 202.611 100.492Z" fill="#DBB4A1" stroke="#DBB4A1" stroke-width="2.65618" stroke-linejoin="round"/>
<path d="M170.853 89.4275C165.305 83.5816 160.336 86.7413 158.933 89.8249C157.53 92.9085 165.421 98.3925 169.254 97.2415C173.031 105.987 181.99 102.434 185.996 99.5637C190.065 107.065 193.956 102.486 195.393 99.2587C197.414 93.7267 191.114 92.2689 187.711 92.2314C181.608 80.979 173.929 85.6736 170.853 89.4275Z" fill="#DBB4A1" stroke="#DBB4A1" stroke-width="2.65618" stroke-linejoin="round"/>
<path d="M96.9378 145.838C100.855 132.198 114.016 137.127 116.968 143.958C119.919 150.789 116.603 155.245 111.167 158.068C105.731 160.891 93.0209 159.479 96.9378 145.838Z" fill="#FCDBC7" stroke="#FCDBC7" stroke-width="2.65618" stroke-linejoin="round"/>
<path d="M165.961 161.067C169.878 147.426 183.039 152.356 185.991 159.187C188.943 166.018 185.627 170.474 180.19 173.297C174.754 176.12 162.044 174.708 165.961 161.067Z" fill="#FCDBC7" stroke="#FCDBC7" stroke-width="2.65618" stroke-linejoin="round"/>
<path d="M121.098 137.84C119.451 139.047 118.089 144.87 121.453 147.021C126.682 146.484 125.562 139.073 124.246 135.074C123.745 135.594 122.415 136.874 121.098 137.84Z" fill="#AD7368"/>
<path d="M124.111 134.678C124.156 134.806 124.201 134.938 124.246 135.074M124.246 135.074C125.562 139.073 126.682 146.484 121.453 147.021C118.089 144.87 119.451 139.047 121.098 137.84C122.415 136.874 123.745 135.594 124.246 135.074Z" stroke="#AD7368" stroke-width="2.65618" stroke-linejoin="round"/>
<path d="M164.137 146.993C162.49 148.2 161.128 154.023 164.492 156.174C169.721 155.636 168.601 148.226 167.285 144.227C166.785 144.747 165.454 146.027 164.137 146.993Z" fill="#AD7368"/>
<path d="M167.15 143.831C167.195 143.959 167.24 144.091 167.285 144.227M167.285 144.227C168.601 148.226 169.721 155.636 164.492 156.174C161.128 154.023 162.49 148.2 164.137 146.993C165.454 146.027 166.785 144.747 167.285 144.227Z" stroke="#AD7368" stroke-width="2.65618" stroke-linejoin="round"/>
<path d="M179.125 163.006L178.814 167.255" stroke="#AD7368" stroke-width="2.65618" stroke-linejoin="round"/>
<path d="M110.532 146.06L110.767 150.891" stroke="#AD7368" stroke-width="2.65618" stroke-linejoin="round"/>
<path d="M104.866 147.919L105.202 152.319" stroke="#AD7368" stroke-width="2.65618" stroke-linejoin="round"/>
<path d="M152.014 181.687C160.002 180.597 177.386 179.203 183.021 182.34" stroke="#AD7368" stroke-width="2.65618" stroke-linejoin="round"/>
<path d="M174.646 161.732L174.249 167.325" stroke="#AD7368" stroke-width="2.65618" stroke-linejoin="round"/>
<path d="M108.067 97.2655C104.022 106.782 96.4304 126.023 98.42 126.852" stroke="#AD7368" stroke-width="2.65618" stroke-linejoin="round"/>
<path d="M98.5625 146.673C100.08 155.747 108.942 174.073 132.246 174.791C134.986 174.749 140.57 175.963 140.993 181.157" stroke="#AD7368" stroke-width="2.65618" stroke-linejoin="round"/>
<path d="M224.788 89.2999C228.089 97.8806 233.113 118.676 226.804 133.213" stroke="#AD7368" stroke-width="2.65618" stroke-linejoin="round"/>
<path d="M239.311 153.65C237.186 157.551 233.768 167.047 237.095 173.83C241.254 182.308 224.317 195.406 209.762 188.592" stroke="#AD7368" stroke-width="2.65618" stroke-linejoin="round"/>
<path d="M208.957 139.503L201.495 171.42" stroke="#AD7368" stroke-width="2.65618" stroke-linejoin="round"/>
<path d="M207.041 147.698C213.409 151.916 221.771 163.105 204.276 174.117" stroke="#AD7368" stroke-width="2.65618" stroke-linejoin="round"/>
<path d="M94.9722 101.71C97.9489 84.4376 109.382 50.583 131.299 53.3417" stroke="#AD7368" stroke-width="2.65618" stroke-linejoin="round"/>
<path d="M89.4575 102.922C78.6816 123.072 66.756 164.029 93.3855 162.976" stroke="#AD7368" stroke-width="2.65618" stroke-linejoin="round"/>
<path d="M94.8174 161.719C91.5022 163.9 86.5338 168.743 93.1816 170.662" stroke="#AD7368" stroke-width="2.65618" stroke-linejoin="round"/>
<path d="M232.067 80.5395C241.811 92.3701 257.237 120.95 240.992 140.624" stroke="#AD7368" stroke-width="2.65618" stroke-linejoin="round"/>
<path d="M135.341 50.6475C155.02 45.9231 198.835 43.2932 216.658 70.5684" stroke="#AD7368" stroke-width="2.65618" stroke-linejoin="round"/>
<path d="M135.55 81.8563C128.639 93.5838 118.731 118.773 134.395 125.71" stroke="#AD7368" stroke-width="2.65618" stroke-linejoin="round"/>
<path d="M160.962 88.9343C155.695 98.1654 148.59 119.476 162.302 130.87" stroke="#AD7368" stroke-width="2.65618" stroke-linejoin="round"/>
<path d="M185.177 102.101C183.713 113.285 183.881 136.19 196.265 138.338" stroke="#AD7368" stroke-width="2.65618" stroke-linejoin="round"/>
<path d="M203.644 122.34C193.978 141.308 178.384 180.574 193.335 185.889" stroke="#AD7368" stroke-width="2.65618" stroke-linejoin="round"/>
<path d="M156.151 58.9244C159.972 55.034 165.406 50.3201 171.661 46.0884M171.661 46.0884C185.925 36.438 216.933 32.4222 217.857 40.1441C218.781 47.8659 192.523 51.8066 171.661 46.0884Z" stroke="#AD7368" stroke-width="2.65618" stroke-linejoin="round"/>
<path d="M120.043 83.0071C113.915 75.7519 109.02 81.1882 107.339 84.8132C109.037 94.6719 116.538 91.5129 120.076 88.701C126.41 98.1878 136.94 95.3728 141.412 92.7794C143.244 96.6193 153.691 94.7402 154.29 88.2845C154.77 83.1199 147.653 81.6531 144.034 81.5652C134.888 70.8751 124.229 78.0722 120.043 83.0071Z" fill="#DBB4A1" stroke="#DBB4A1" stroke-width="2.65618" stroke-linejoin="round"/>
<path d="M138.94 184.01C129.264 173.121 115.225 176.565 110.117 179.008C118.495 181.792 127.242 185.807 129.807 191.149C140.374 188.428 163.81 185.383 173.186 194.91L176.02 194.715C180.43 195.203 184.393 203.081 185.824 206.959C189.267 207.387 195.692 208.09 193.845 207.477C191.998 206.865 193.217 200.168 194.057 196.896C195.916 197.331 198.869 196.438 195.812 189.39C192.755 182.342 156.624 182.867 138.94 184.01Z" fill="#FAB18E"/>
<path d="M110.015 179.057C115.035 176.612 129.199 173.047 138.94 184.01C156.624 182.867 192.755 182.342 195.812 189.39C198.869 196.438 195.916 197.331 194.057 196.896C193.217 200.168 191.998 206.865 193.845 207.477C195.692 208.09 189.267 207.387 185.824 206.959C184.393 203.081 180.43 195.203 176.02 194.715L173.031 194.921M104.336 167.551C101.859 169.762 96.093 174.174 92.8443 174.138C88.7834 174.094 124.178 179.428 129.807 191.149C140.397 188.422 163.91 185.37 173.246 194.971" stroke="#AD7368" stroke-width="2.65618"/>
<path d="M111.127 171.401C108.638 171.724 104.309 173.471 106.898 177.876" stroke="#AD7368" stroke-width="2.65618"/>
<path d="M75.0309 190.323C78.6975 191.718 84.2275 184.818 86.5342 181.194L81.3572 174.321L73.9825 177.419L67.3173 181.741C65.8166 196.535 70.4477 188.579 75.0309 190.323Z" fill="#F8D0D1"/>
<path d="M67.9801 186.646C69.89 184.605 74.0081 181.18 75.2024 183.811" stroke="#AD7368" stroke-width="2.65618"/>
<path d="M44.0625 191.233L48.7807 192.336" stroke="#AD7368" stroke-width="2.65618"/>
<path d="M52.744 186.025C50.4512 184.222 44.8385 187.268 42.3187 189.016L44.3825 194.701L56.944 195.149C61.5594 186.05 55.61 188.278 52.744 186.025Z" fill="#F8D0D1"/>
<path d="M215.462 199.186C216.424 196.433 211.072 192.614 208.602 190.797L205.956 192.44L208.426 205.494C218.529 206.912 214.259 202.628 215.462 199.186Z" fill="#F8D0D1"/>
<path d="M229.384 218.142C228.597 215.334 222.596 213.785 219.53 213.709L217.341 217.268L221.198 224.956L228.267 229.549C237.365 224.929 230.367 221.653 229.384 218.142Z" fill="#F8D0D1"/>
<path d="M250.593 231.184C249.806 228.376 243.805 226.827 240.739 226.751L238.55 230.31L242.407 237.998L248.845 238.657C257.943 234.038 251.576 234.695 250.593 231.184Z" fill="#F8D0D1"/>
<path d="M277.265 239.967C276.479 237.159 270.478 235.61 267.412 235.534L258.339 243.139L263.701 251.404L268.608 254.361L273.626 255.534C282.723 250.914 278.248 243.478 277.265 239.967Z" fill="#F8D0D1"/>
<path d="M30.0872 180.605C33.7749 179.62 38.2851 187.03 40.0792 190.858L34.2997 197.093L17.107 196.24C17.3924 181.464 25.4777 181.837 30.0872 180.605Z" fill="#F8D0D1"/>
<path d="M37.1193 177.396L41.5114 188.601L43.099 187.615L46.4778 178L44.62 175.304L37.1193 177.396Z" fill="#F5A297" stroke="#AD7368" stroke-width="0.440493"/>
<path d="M87.1075 178.226L84.3079 179.645L78.5373 198.57L81.4386 202.473L79.549 210.556L82.0675 213.218L80.5864 219.553L83.3518 220.2L82.1772 225.224L74.5951 231.745L73.5226 236.333L83.1884 242.97L111.736 254.252L120.602 260.471L125.843 259.163L166.431 264.044L174.779 260.006L175.213 255.269L168.014 257.272L168.832 253.777L172.082 249.468L168.577 243.35L173.785 232.588L174.603 229.092L179.998 227.128L182.194 206.216L175.992 201.079L172.29 202.518L127.95 193.534L122.649 194.138L87.1075 178.226Z" fill="#F0E9F0"/>
<path d="M39.0294 190.509C40.558 187.066 43.0216 189.557 44.0623 191.233C44.3697 194.562 41.8396 194.936 40.5361 194.706C39.3969 194.741 37.5007 193.951 39.0294 190.509Z" stroke="#AD7368" stroke-width="2.65618"/>
<path d="M39.4951 189.487C37.6235 185.882 32.4403 178.835 26.6804 179.479C20.9204 180.123 18.1397 183.438 17.4694 185.016C16.4992 185.618 14.6323 185.348 14.9266 179.445C12.7317 184.964 10.0547 196.22 16.9065 197.098C25.4711 198.196 35.0301 197.942 38.5424 193.561" stroke="#AD7368" stroke-width="2.65618"/>
<path d="M204.387 198.181C200.621 201.07 196.145 205.572 202.081 208.046C208.017 210.519 200.695 211.718 193.193 210.266" stroke="#AD7368" stroke-width="2.65618"/>
<path d="M85.7861 177.238C98.3233 184.241 124.526 197.288 129.041 193.458C143.221 197.301 172.843 204.241 177.883 201.258" stroke="#AD7368" stroke-width="2.65618"/>
<path d="M128.539 195.602L117.569 250.263" stroke="#AD7368" stroke-width="2.65618"/>
<path d="M84.9419 177.946C82.1036 183.314 76.8826 195.197 78.7051 199.785" stroke="#AD7368" stroke-width="2.65618"/>
<path d="M71.1595 205.937C73.9393 203.722 79.8831 199.97 81.4205 202.681C82.9579 205.393 79.9906 208.152 78.3148 209.193C78.5431 210.151 79.4917 212.092 81.4592 212.19C83.9186 212.313 80.5845 217.867 80.1695 218.674C79.7545 219.482 82.1498 218.911 82.2139 219.605C82.2779 220.298 82.9129 223.387 81.4116 223.036C80.2106 222.755 79.4146 222.871 79.1667 222.964C79.8147 223.417 81.1008 224.366 81.0607 224.537C81.0105 224.752 80.4004 230.264 73.5515 229.567C68.0723 229.01 67.3936 218.175 67.7391 212.828" stroke="#AD7368" stroke-width="2.65618"/>
<path d="M197.156 221.37C197.598 236.251 201.171 267.275 198.72 274.664" stroke="#AD7368" stroke-width="2.65618"/>
<path d="M188.747 240.892C188.707 239.45 188.261 236.391 186.797 235.686M183.615 205.764C183.009 211.579 180.956 225.454 179.851 228.634M124.087 257.215C139.733 260.27 171.141 265.502 171.6 261.99C175.655 260.45 183.597 256.923 182.928 255.139M73.3512 230.425C72.652 232.448 71.7255 236.604 73.6128 237.046C83.7436 242.731 105.637 253.897 112.163 253.07C112.232 254.066 112.561 256.013 113.327 255.83C114.285 255.602 122.048 260.131 122.992 258.995C123.747 258.086 125.402 257.07 125.524 256.872M187.29 236.48C185.919 232.993 181.525 226.311 176.233 229.598C176.139 230.814 176.227 232.694 176.916 233.644M176.916 233.644C177.317 234.198 177.921 234.437 178.812 234.046C178.279 233.902 177.613 233.754 176.916 233.644ZM176.916 233.644C174.831 233.317 172.465 233.332 172.52 234.837C172.594 236.844 173.455 238.9 173.876 239.677C172.258 239.827 169.146 240.562 169.643 242.307C169.27 243.577 169.545 246.4 173.623 247.535C177.7 248.669 172.627 251.147 169.581 252.244C168.449 253.864 166.899 257.136 169.765 257.263C172.63 257.39 176.674 256.089 178.338 255.423M182.41 256.374C184.444 253.156 188.772 244.653 188.797 240.678M183.205 210.418L193.07 212.725C194.733 231.736 196.903 270.439 192.286 273.159C186.515 276.56 105.433 274.115 79.9321 255.487L86.1073 243.586" stroke="#AD7368" stroke-width="2.65618"/>
<path d="M40.3383 188.779C36.4013 180.078 36.4754 177.245 37.0046 176.917C39.8057 174.933 45.6391 172.104 46.5637 176.663C47.4883 181.222 44.3714 187.008 42.6974 189.331" stroke="#AD7368" stroke-width="2.65618"/>
<path d="M43.3776 188.359C47.6493 185.889 57.5619 182.446 63.0387 188.431" stroke="#AD7368" stroke-width="2.65618"/>
<path d="M42.6167 194.514C46.2338 195.812 54.4607 197.645 58.4314 194.592" stroke="#AD7368" stroke-width="2.65618"/>
<path d="M64.3681 185.648C68.5006 179.904 78.2864 170.038 84.3692 176.527" stroke="#AD7368" stroke-width="2.65618"/>
<path d="M67.1129 189.384C69.0022 190.655 73.8192 192.626 77.9726 190.34" stroke="#AD7368" stroke-width="2.65618"/>
<path d="M41.9371 195.486L38.5057 194.684L34.7511 197.199L31.9964 202.209L32.6452 206.206L38.2213 207.51L41.6611 205.374L42.6639 201.084L41.9371 195.486Z" fill="#F5A297" stroke="#AD7368" stroke-width="0.440493"/>
<path d="M38.921 193.876C34.2983 197.847 27.099 206.131 35.2832 207.501C43.4673 208.872 43.1201 199.457 41.9235 194.578" stroke="#AD7368" stroke-width="2.65618"/>
<path d="M202.777 183.781C203.787 184.825 204.888 186.005 206.031 187.279M206.031 187.279C214.375 196.575 224.918 210.831 217.814 213.308C209.737 216.124 206.593 197.128 206.031 187.279Z" stroke="#AD7368" stroke-width="2.65618"/>
<path d="M219.417 213.23C227.499 215.421 242.429 221.414 237.484 227.858C231.304 235.913 213.301 221.006 218.364 217.733" stroke="#AD7368" stroke-width="2.65618"/>
<path d="M238.756 227.251C245.301 226.67 257.858 227.781 255.732 236.875C251.062 240.08 241.129 242.644 238.756 227.251Z" stroke="#AD7368" stroke-width="2.65618"/>
<path d="M268.088 234.335C271.956 234.56 280.491 237.008 284.348 246.053C285.599 247.476 290.905 250.707 291.375 247.922C288.613 253.609 280.683 263.472 271.059 257.422C261.436 251.372 258.999 245.479 258.983 243.289" stroke="#AD7368" stroke-width="2.65618"/>
<path d="M263.86 223.394L258.557 236.404L255.596 238.426L251.741 241.37L242.982 244.977L242.229 248.194L244.694 252.163L247.482 252.814L253.29 248.291L255.415 244.038L257.331 243.582L260.392 241.131L262.066 238.808L263.59 237.128L268.654 232.884L270.679 229.06L270.952 225.957L266.406 222.18L263.86 223.394Z" fill="#F5A297" stroke="#AD7368" stroke-width="0.440493"/>
<path d="M258.356 237.262C259.62 230.244 263.655 217.692 269.687 223.625C275.719 229.559 266.371 236.195 260.944 238.771" stroke="#AD7368" stroke-width="2.65618"/>
<path d="M253.607 241.128C247.458 241.952 236.721 245.051 242.964 250.854C249.208 256.656 254.285 248.223 256.044 243.281" stroke="#AD7368" stroke-width="2.65618"/>
<path d="M255.947 236.925C254.453 238.159 252.099 241.001 254.644 242.501C257.188 244 259.126 243.323 259.777 242.796C260.99 241.798 262.61 239.387 259.379 237.727C255.34 235.652 255.003 238.061 255.947 236.925Z" stroke="#AD7368" stroke-width="2.65618"/>
</svg>
