<svg width="1481" height="1358" viewBox="0 0 1481 1358" fill="none" xmlns="http://www.w3.org/2000/svg">
<path d="M494.478 1122.41L379.794 1081.57L355.957 1132.11L433.655 1168.31L575.581 1195.48L737.27 1215.24L849.76 1205.48C872.559 1210.81 858.639 1033.22 848.829 943.768L809.881 934.662L801.996 1006.96L827.064 1036.86L840.19 1075L802.412 1142.31L748.375 1167.75L559.642 1143.66L530.317 1144.82L494.478 1122.41Z" fill="#FAB18E"/>
<path d="M1178.72 1084.01C1188.4 1082.6 1208.6 1082.18 1211.97 1091.78" stroke="#AD7368" stroke-width="11.7653"/>
<path d="M897.453 445.124C911.811 410.702 999.466 439.98 982.717 481.177C965.967 522.374 908.749 497.21 897.453 445.124Z" fill="#DBB4A1" stroke="#DBB4A1" stroke-width="11.7653" stroke-linejoin="round"/>
<path d="M756.785 396.113C732.213 370.22 710.202 384.215 703.986 397.874C697.771 411.532 732.725 435.824 749.701 430.725C766.435 469.464 806.114 453.724 823.862 441.011C841.884 474.239 859.119 453.955 865.483 439.66C874.436 415.157 846.528 408.699 831.455 408.533C804.422 358.691 770.411 379.486 756.785 396.113Z" fill="#DBB4A1" stroke="#DBB4A1" stroke-width="11.7653" stroke-linejoin="round"/>
<path d="M429.381 645.982C446.731 585.561 505.026 607.395 518.101 637.652C531.176 667.909 516.487 687.647 492.407 700.151C468.327 712.655 412.031 706.402 429.381 645.982Z" fill="#FCDBC7" stroke="#FCDBC7" stroke-width="11.7653" stroke-linejoin="round"/>
<path d="M735.116 713.436C752.466 653.016 810.761 674.85 823.836 705.107C836.911 735.364 822.222 755.101 798.142 767.606C774.062 780.11 717.766 773.857 735.116 713.436Z" fill="#FCDBC7" stroke="#FCDBC7" stroke-width="11.7653" stroke-linejoin="round"/>
<path d="M536.394 610.553C529.099 615.9 523.07 641.691 537.969 651.219C561.128 648.84 556.167 616.017 550.34 598.303C548.123 600.604 542.23 606.276 536.394 610.553Z" fill="#AD7368"/>
<path d="M549.743 596.547C549.942 597.114 550.142 597.699 550.34 598.303M550.34 598.303C556.167 616.017 561.128 648.84 537.969 651.219C523.07 641.691 529.099 615.9 536.394 610.553C542.23 606.276 548.123 600.604 550.34 598.303Z" stroke="#AD7368" stroke-width="11.7653" stroke-linejoin="round"/>
<path d="M727.034 651.094C719.74 656.441 713.71 682.233 728.609 691.761C751.768 689.381 746.807 656.558 740.98 638.844C738.763 641.145 732.87 646.817 727.034 651.094Z" fill="#AD7368"/>
<path d="M740.383 637.089C740.582 637.655 740.782 638.241 740.98 638.844M740.98 638.844C746.807 656.558 751.768 689.381 728.609 691.761C713.71 682.233 719.74 656.441 727.034 651.094C732.87 646.817 738.763 641.145 740.98 638.844Z" stroke="#AD7368" stroke-width="11.7653" stroke-linejoin="round"/>
<path d="M793.425 722.026L792.048 740.845" stroke="#AD7368" stroke-width="11.7653" stroke-linejoin="round"/>
<path d="M489.599 646.963L490.64 668.363" stroke="#AD7368" stroke-width="11.7653" stroke-linejoin="round"/>
<path d="M464.502 655.2L465.991 674.689" stroke="#AD7368" stroke-width="11.7653" stroke-linejoin="round"/>
<path d="M673.336 804.769C708.717 799.944 785.72 793.768 810.68 807.663" stroke="#AD7368" stroke-width="11.7653" stroke-linejoin="round"/>
<path d="M773.589 716.38L771.827 741.154" stroke="#AD7368" stroke-width="11.7653" stroke-linejoin="round"/>
<path d="M478.674 430.831C460.759 472.986 427.133 558.212 435.946 561.885" stroke="#AD7368" stroke-width="11.7653" stroke-linejoin="round"/>
<path d="M436.577 649.68C443.3 689.87 482.552 771.046 585.777 774.224C597.91 774.039 622.645 779.418 624.52 802.424" stroke="#AD7368" stroke-width="11.7653" stroke-linejoin="round"/>
<path d="M995.684 395.548C1010.31 433.556 1032.56 525.668 1004.61 590.058" stroke="#AD7368" stroke-width="11.7653" stroke-linejoin="round"/>
<path d="M1060.01 680.584C1050.6 697.861 1035.46 739.925 1050.2 769.967C1068.62 807.52 993.601 865.54 929.129 835.355" stroke="#AD7368" stroke-width="11.7653" stroke-linejoin="round"/>
<path d="M925.562 617.919L892.509 759.294" stroke="#AD7368" stroke-width="11.7653" stroke-linejoin="round"/>
<path d="M917.075 654.219C945.281 672.903 982.32 722.464 904.828 771.242" stroke="#AD7368" stroke-width="11.7653" stroke-linejoin="round"/>
<path d="M420.677 450.517C433.862 374.011 484.503 224.054 581.585 236.274" stroke="#AD7368" stroke-width="11.7653" stroke-linejoin="round"/>
<path d="M396.25 455.888C348.519 545.138 295.695 726.554 413.649 721.892" stroke="#AD7368" stroke-width="11.7653" stroke-linejoin="round"/>
<path d="M419.988 716.323C405.304 725.986 383.296 747.438 412.742 755.934" stroke="#AD7368" stroke-width="11.7653" stroke-linejoin="round"/>
<path d="M1027.93 356.745C1071.09 409.148 1139.41 535.74 1067.46 622.886" stroke="#AD7368" stroke-width="11.7653" stroke-linejoin="round"/>
<path d="M599.486 224.34C686.653 203.414 880.725 191.765 959.672 312.578" stroke="#AD7368" stroke-width="11.7653" stroke-linejoin="round"/>
<path d="M600.414 362.577C569.799 414.524 525.916 526.098 595.298 556.826" stroke="#AD7368" stroke-width="11.7653" stroke-linejoin="round"/>
<path d="M712.969 393.929C689.642 434.818 658.17 529.212 718.907 579.68" stroke="#AD7368" stroke-width="11.7653" stroke-linejoin="round"/>
<path d="M820.229 452.251C813.743 501.789 814.487 603.244 869.344 612.757" stroke="#AD7368" stroke-width="11.7653" stroke-linejoin="round"/>
<path d="M902.03 541.897C859.216 625.916 790.144 799.839 856.37 823.382" stroke="#AD7368" stroke-width="11.7653" stroke-linejoin="round"/>
<path d="M691.66 261.002C708.587 243.77 732.657 222.89 760.362 204.146M760.362 204.146C823.543 161.4 960.892 143.613 964.985 177.816C969.078 212.019 852.767 229.474 760.362 204.146Z" stroke="#AD7368" stroke-width="11.7653" stroke-linejoin="round"/>
<path d="M531.723 367.675C504.58 335.538 482.898 359.618 475.45 375.675C482.972 419.343 516.198 405.351 531.871 392.896C559.927 434.917 606.565 422.448 626.377 410.961C634.49 427.969 680.764 419.646 683.419 391.051C685.544 368.175 654.018 361.677 637.99 361.288C597.479 313.937 550.265 345.816 531.723 367.675Z" fill="#DBB4A1" stroke="#DBB4A1" stroke-width="11.7653" stroke-linejoin="round"/>
<path d="M615.426 815.062C572.566 766.827 510.38 782.083 487.757 792.905C524.865 805.237 563.61 823.022 574.972 846.681C621.778 834.629 725.587 821.14 767.117 863.342L779.669 862.477C799.201 864.639 816.757 899.535 823.094 916.712C838.347 918.608 866.807 921.722 858.625 919.008C850.443 916.293 855.841 886.631 859.564 872.139C867.796 874.064 880.877 870.109 867.337 838.891C853.796 807.673 693.754 809.997 615.426 815.062Z" fill="#FAB18E"/>
<path d="M487.306 793.123C509.542 782.292 572.277 766.502 615.426 815.062C693.754 809.997 853.796 807.673 867.337 838.891C880.877 870.109 867.796 874.064 859.564 872.139C855.841 886.631 850.443 916.293 858.625 919.008C866.807 921.722 838.347 918.608 823.094 916.712C816.757 899.535 799.201 864.639 779.669 862.477L766.431 863.39M462.152 742.158C451.18 751.949 425.638 771.492 411.248 771.334C393.26 771.136 550.04 794.766 574.972 846.681C621.878 834.604 726.028 821.082 767.381 863.612" stroke="#AD7368" stroke-width="11.7653"/>
<path d="M492.23 759.209C481.208 760.639 462.033 768.379 473.501 787.892" stroke="#AD7368" stroke-width="11.7653"/>
<path d="M332.345 843.021C348.586 849.2 373.081 818.639 383.298 802.587L360.367 772.144L327.701 785.865L298.178 805.011C291.531 870.537 312.044 835.298 332.345 843.021Z" fill="#F8D0D1"/>
<path d="M301.114 826.737C309.574 817.694 327.815 802.523 333.105 814.179" stroke="#AD7368" stroke-width="11.7653"/>
<path d="M195.174 847.054L216.073 851.94" stroke="#AD7368" stroke-width="11.7653"/>
<path d="M233.63 823.985C223.474 816 198.613 829.49 187.452 837.233L196.593 862.414L252.233 864.401C272.677 824.096 246.324 833.966 233.63 823.985Z" fill="#F8D0D1"/>
<path d="M954.374 882.282C958.638 870.087 934.931 853.172 923.989 845.122L912.268 852.401L923.208 910.22C967.962 916.502 949.045 897.526 954.374 882.282Z" fill="#F8D0D1"/>
<path d="M1016.04 966.247C1012.56 953.806 985.977 946.948 972.398 946.609L962.7 962.375L979.786 996.426L1011.1 1016.77C1051.39 996.309 1020.4 981.797 1016.04 966.247Z" fill="#F8D0D1"/>
<path d="M1109.98 1024.01C1106.5 1011.57 1079.92 1004.72 1066.34 1004.38L1056.64 1020.14L1073.73 1054.19L1102.25 1057.12C1142.54 1036.65 1114.34 1039.56 1109.98 1024.01Z" fill="#F8D0D1"/>
<path d="M1228.13 1062.92C1224.64 1050.48 1198.06 1043.62 1184.48 1043.28L1144.3 1076.97L1168.05 1113.58L1189.78 1126.67L1212.01 1131.87C1252.3 1111.41 1232.48 1078.47 1228.13 1062.92Z" fill="#F8D0D1"/>
<path d="M133.271 799.98C149.605 795.617 169.583 828.437 177.53 845.392L151.93 873.011L75.7757 869.233C77.0399 803.781 112.853 805.434 133.271 799.98Z" fill="#F8D0D1"/>
<path d="M164.42 785.762L183.874 835.395L190.907 831.028L205.873 788.441L197.644 776.498L164.42 785.762Z" fill="#F5A297" stroke="#AD7368" stroke-width="1.95114"/>
<path d="M385.838 789.438L373.438 795.724L347.877 879.55L360.728 896.842L352.358 932.643L363.514 944.435L356.953 972.496L369.203 975.359L364 997.614L330.415 1026.5L325.665 1046.82L368.479 1076.22L494.926 1126.19L534.198 1153.74L557.415 1147.94L737.197 1169.56L774.173 1151.68L776.097 1130.7L744.21 1139.57L747.829 1124.09L762.228 1105L746.702 1077.9L769.772 1030.23L773.392 1014.75L797.288 1006.05L807.019 913.419L779.545 890.668L763.149 897.04L566.747 857.246L543.266 859.92L385.838 789.438Z" fill="#F0E9F0"/>
<path d="M172.882 843.846C179.653 828.597 190.565 839.631 195.175 847.054C196.536 861.8 185.329 863.454 179.555 862.438C174.51 862.594 166.111 859.094 172.882 843.846Z" stroke="#AD7368" stroke-width="11.7653"/>
<path d="M174.939 839.317C166.649 823.353 143.691 792.137 118.177 794.989C92.6642 797.84 80.3473 812.527 77.378 819.514C73.0805 822.183 64.8114 820.984 66.1148 794.84C56.3926 819.283 44.5354 869.143 74.8846 873.032C112.821 877.894 155.162 876.772 170.72 857.367" stroke="#AD7368" stroke-width="11.7653"/>
<path d="M905.322 877.828C888.638 890.625 868.813 910.569 895.106 921.525C921.398 932.481 888.966 937.79 855.738 931.357" stroke="#AD7368" stroke-width="11.7653"/>
<path d="M379.986 785.065C435.519 816.082 551.583 873.874 571.58 856.908C634.392 873.931 765.597 904.672 787.922 891.457" stroke="#AD7368" stroke-width="11.7653"/>
<path d="M569.359 866.408L520.769 1108.52" stroke="#AD7368" stroke-width="11.7653"/>
<path d="M376.248 788.198C363.676 811.976 340.55 864.611 348.623 884.933" stroke="#AD7368" stroke-width="11.7653"/>
<path d="M315.2 912.184C327.513 902.372 353.841 885.752 360.651 897.763C367.461 909.775 354.317 921.997 346.894 926.607C347.906 930.851 352.107 939.448 360.822 939.882C371.716 940.425 356.948 965.025 355.11 968.603C353.271 972.181 363.881 969.652 364.165 972.724C364.449 975.796 367.261 989.478 360.611 987.923C355.292 986.679 351.766 987.191 350.668 987.602C353.538 989.609 359.235 993.813 359.057 994.573C358.835 995.523 356.132 1019.94 325.795 1016.85C301.526 1014.38 298.519 966.393 300.05 942.706" stroke="#AD7368" stroke-width="11.7653"/>
<path d="M873.293 980.546C875.248 1046.46 891.078 1183.88 880.22 1216.6" stroke="#AD7368" stroke-width="11.7653"/>
<path d="M836.044 1067.02C835.868 1060.63 833.893 1047.08 827.409 1043.96M813.311 911.419C810.629 937.175 801.537 998.635 796.641 1012.72M549.637 1139.32C618.942 1152.85 758.061 1176.02 760.095 1160.47C778.054 1153.65 813.231 1138.02 810.271 1130.12M324.907 1020.65C321.81 1029.61 317.706 1048.02 326.066 1049.98C370.939 1075.16 467.914 1124.62 496.822 1120.96C497.126 1125.37 498.584 1133.99 501.979 1133.18C506.223 1132.17 540.606 1152.23 544.788 1147.2C548.134 1143.17 555.464 1138.67 556.003 1137.8M829.593 1047.47C823.519 1032.03 804.056 1002.43 780.615 1016.99C780.199 1022.38 780.59 1030.7 783.639 1034.91M783.639 1034.91C785.415 1037.37 788.093 1038.42 792.039 1036.69C789.677 1036.05 786.727 1035.4 783.639 1034.91ZM783.639 1034.91C774.405 1033.46 763.925 1033.53 764.169 1040.19C764.495 1049.09 768.31 1058.19 770.177 1061.63C763.009 1062.3 749.223 1065.55 751.424 1073.28C749.775 1078.91 750.992 1091.41 769.053 1096.44C787.115 1101.46 764.644 1112.44 751.152 1117.3C746.134 1124.48 739.273 1138.97 751.965 1139.53C764.658 1140.09 782.57 1134.33 789.939 1131.38M807.974 1135.59C816.985 1121.34 836.157 1083.67 836.266 1066.07M811.497 932.034L855.195 942.251C862.558 1026.46 872.172 1197.89 851.721 1209.94C826.158 1225 467.013 1214.18 354.057 1131.66L381.41 1078.95" stroke="#AD7368" stroke-width="11.7653"/>
<path d="M178.68 836.184C161.241 797.643 161.57 785.096 163.914 783.64C176.321 774.853 202.159 762.325 206.255 782.519C210.35 802.712 196.544 828.338 189.129 838.627" stroke="#AD7368" stroke-width="11.7653"/>
<path d="M192.14 834.322C211.061 823.383 254.968 808.134 279.228 834.645" stroke="#AD7368" stroke-width="11.7653"/>
<path d="M188.771 861.587C204.793 867.336 241.233 875.455 258.822 861.934" stroke="#AD7368" stroke-width="11.7653"/>
<path d="M285.116 822.316C303.42 796.873 346.766 753.173 373.709 781.914" stroke="#AD7368" stroke-width="11.7653"/>
<path d="M297.277 838.865C305.645 844.495 326.982 853.223 345.379 843.097" stroke="#AD7368" stroke-width="11.7653"/>
<path d="M185.761 865.892L170.561 862.339L153.931 873.479L141.729 895.673L144.603 913.377L169.302 919.151L184.538 909.689L188.98 890.69L185.761 865.892Z" fill="#F5A297" stroke="#AD7368" stroke-width="1.95114"/>
<path d="M172.4 858.761C151.924 876.349 120.035 913.043 156.286 919.114C192.538 925.185 191 883.481 185.7 861.871" stroke="#AD7368" stroke-width="11.7653"/>
<path d="M898.193 814.045C902.663 818.67 907.542 823.898 912.604 829.539M912.604 829.539C949.562 870.718 996.266 933.86 964.798 944.832C929.02 957.306 915.095 873.167 912.604 829.539Z" stroke="#AD7368" stroke-width="11.7653"/>
<path d="M971.891 944.487C1007.69 954.193 1073.82 980.741 1051.92 1009.28C1024.54 1044.96 944.803 978.93 967.227 964.436" stroke="#AD7368" stroke-width="11.7653"/>
<path d="M1057.56 1006.59C1086.55 1004.02 1142.17 1008.94 1132.75 1049.22C1112.07 1063.42 1068.07 1074.77 1057.56 1006.59Z" stroke="#AD7368" stroke-width="11.7653"/>
<path d="M1187.48 1037.97C1204.61 1038.97 1242.42 1049.81 1259.5 1089.87C1265.04 1096.18 1288.54 1110.49 1290.63 1098.15C1278.39 1123.34 1243.27 1167.03 1200.64 1140.23C1158.01 1113.43 1147.22 1087.33 1147.15 1077.63" stroke="#AD7368" stroke-width="11.7653"/>
<path d="M1168.75 989.509L1145.26 1047.14L1132.15 1056.09L1115.07 1069.13L1076.27 1085.11L1072.94 1099.36L1083.86 1116.94L1096.21 1119.82L1121.93 1099.79L1131.34 1080.95L1139.83 1078.93L1153.39 1068.07L1160.8 1057.78L1167.55 1050.34L1189.98 1031.54L1198.95 1014.6L1200.16 1000.86L1180.03 984.13L1168.75 989.509Z" fill="#F5A297" stroke="#AD7368" stroke-width="1.95114"/>
<path d="M1144.37 1050.93C1149.97 1019.85 1167.84 964.25 1194.56 990.533C1221.28 1016.82 1179.87 1046.21 1155.83 1057.62" stroke="#AD7368" stroke-width="11.7653"/>
<path d="M1123.34 1068.06C1096.1 1071.71 1048.54 1085.44 1076.2 1111.14C1103.85 1136.84 1126.34 1099.49 1134.13 1077.6" stroke="#AD7368" stroke-width="11.7653"/>
<path d="M1133.7 1049.44C1127.08 1054.91 1116.65 1067.5 1127.93 1074.14C1139.2 1080.78 1147.78 1077.78 1150.66 1075.45C1156.04 1071.03 1163.21 1060.35 1148.9 1052.99C1131.01 1043.8 1129.52 1054.47 1133.7 1049.44Z" stroke="#AD7368" stroke-width="11.7653"/>
</svg>
