<svg width="152" height="165" viewBox="0 0 152 165" fill="none" xmlns="http://www.w3.org/2000/svg">
<g filter="url(#filter0_d_318_1253)">
<rect x="8" y="10.8378" width="143.767" height="143.767" fill="white"/>
</g>
<rect x="21" y="98" width="120" height="37" rx="3" fill="#FFF7E7"/>
<rect x="21" y="57" width="120" height="22" rx="3" fill="#FFF7E7"/>
<path d="M42.5712 91.39H46.2712V92.03H42.5712V91.39ZM42.6512 95H41.9112V88H46.7112V88.64H42.6512V95ZM51.1644 95V93.84L51.1344 93.65V91.71C51.1344 91.2633 51.0078 90.92 50.7544 90.68C50.5078 90.44 50.1378 90.32 49.6444 90.32C49.3044 90.32 48.9811 90.3767 48.6744 90.49C48.3678 90.6033 48.1078 90.7533 47.8944 90.94L47.5744 90.41C47.8411 90.1833 48.1611 90.01 48.5344 89.89C48.9078 89.7633 49.3011 89.7 49.7144 89.7C50.3944 89.7 50.9178 89.87 51.2844 90.21C51.6578 90.5433 51.8444 91.0533 51.8444 91.74V95H51.1644ZM49.3544 95.05C48.9611 95.05 48.6178 94.9867 48.3244 94.86C48.0378 94.7267 47.8178 94.5467 47.6644 94.32C47.5111 94.0867 47.4344 93.82 47.4344 93.52C47.4344 93.2467 47.4978 93 47.6244 92.78C47.7578 92.5533 47.9711 92.3733 48.2644 92.24C48.5644 92.1 48.9644 92.03 49.4644 92.03H51.2744V92.56H49.4844C48.9778 92.56 48.6244 92.65 48.4244 92.83C48.2311 93.01 48.1344 93.2333 48.1344 93.5C48.1344 93.8 48.2511 94.04 48.4844 94.22C48.7178 94.4 49.0444 94.49 49.4644 94.49C49.8644 94.49 50.2078 94.4 50.4944 94.22C50.7878 94.0333 51.0011 93.7667 51.1344 93.42L51.2944 93.91C51.1611 94.2567 50.9278 94.5333 50.5944 94.74C50.2678 94.9467 49.8544 95.05 49.3544 95.05ZM55.0252 95L52.6952 89.75H53.4352L55.5752 94.62H55.2252L57.3952 89.75H58.0952L55.7552 95H55.0252ZM61.0887 95.05C60.582 95.05 60.1253 94.9367 59.7187 94.71C59.3187 94.4767 59.002 94.16 58.7687 93.76C58.5353 93.3533 58.4187 92.89 58.4187 92.37C58.4187 91.8433 58.5353 91.38 58.7687 90.98C59.002 90.58 59.3187 90.2667 59.7187 90.04C60.1187 89.8133 60.5753 89.7 61.0887 89.7C61.6087 89.7 62.0687 89.8133 62.4687 90.04C62.8753 90.2667 63.192 90.58 63.4187 90.98C63.652 91.38 63.7687 91.8433 63.7687 92.37C63.7687 92.89 63.652 93.3533 63.4187 93.76C63.192 94.16 62.8753 94.4767 62.4687 94.71C62.062 94.9367 61.602 95.05 61.0887 95.05ZM61.0887 94.42C61.4687 94.42 61.8053 94.3367 62.0987 94.17C62.392 93.9967 62.622 93.7567 62.7887 93.45C62.962 93.1367 63.0487 92.7767 63.0487 92.37C63.0487 91.9567 62.962 91.5967 62.7887 91.29C62.622 90.9833 62.392 90.7467 62.0987 90.58C61.8053 90.4067 61.472 90.32 61.0987 90.32C60.7253 90.32 60.392 90.4067 60.0987 90.58C59.8053 90.7467 59.572 90.9833 59.3987 91.29C59.2253 91.5967 59.1387 91.9567 59.1387 92.37C59.1387 92.7767 59.2253 93.1367 59.3987 93.45C59.572 93.7567 59.8053 93.9967 60.0987 94.17C60.392 94.3367 60.722 94.42 61.0887 94.42ZM65.2182 95V89.75H65.8982V91.18L65.8282 90.93C65.9749 90.53 66.2215 90.2267 66.5682 90.02C66.9149 89.8067 67.3449 89.7 67.8582 89.7V90.39C67.8315 90.39 67.8049 90.39 67.7782 90.39C67.7515 90.3833 67.7249 90.38 67.6982 90.38C67.1449 90.38 66.7115 90.55 66.3982 90.89C66.0849 91.2233 65.9282 91.7 65.9282 92.32V95H65.2182ZM69.1537 95V89.75H69.8637V95H69.1537ZM69.5137 88.59C69.3671 88.59 69.2437 88.54 69.1437 88.44C69.0437 88.34 68.9937 88.22 68.9937 88.08C68.9937 87.94 69.0437 87.8233 69.1437 87.73C69.2437 87.63 69.3671 87.58 69.5137 87.58C69.6604 87.58 69.7837 87.6267 69.8837 87.72C69.9837 87.8133 70.0337 87.93 70.0337 88.07C70.0337 88.2167 69.9837 88.34 69.8837 88.44C69.7904 88.54 69.6671 88.59 69.5137 88.59ZM73.4993 95.05C73.006 95.05 72.626 94.9167 72.3593 94.65C72.0926 94.3833 71.9593 94.0067 71.9593 93.52V88.59H72.6693V93.48C72.6693 93.7867 72.746 94.0233 72.8993 94.19C73.0593 94.3567 73.286 94.44 73.5793 94.44C73.8926 94.44 74.1526 94.35 74.3593 94.17L74.6093 94.68C74.4693 94.8067 74.2993 94.9 74.0993 94.96C73.906 95.02 73.706 95.05 73.4993 95.05ZM71.0193 90.34V89.75H74.2693V90.34H71.0193ZM77.9462 95.05C77.3996 95.05 76.9196 94.9367 76.5062 94.71C76.0929 94.4767 75.7696 94.16 75.5362 93.76C75.3029 93.3533 75.1862 92.89 75.1862 92.37C75.1862 91.85 75.2962 91.39 75.5162 90.99C75.7429 90.59 76.0496 90.2767 76.4362 90.05C76.8296 89.8167 77.2696 89.7 77.7562 89.7C78.2496 89.7 78.6862 89.8133 79.0662 90.04C79.4529 90.26 79.7562 90.5733 79.9762 90.98C80.1962 91.38 80.3062 91.8433 80.3062 92.37C80.3062 92.4033 80.3029 92.44 80.2962 92.48C80.2962 92.5133 80.2962 92.55 80.2962 92.59H75.7262V92.06H79.9162L79.6362 92.27C79.6362 91.89 79.5529 91.5533 79.3862 91.26C79.2262 90.96 79.0062 90.7267 78.7262 90.56C78.4462 90.3933 78.1229 90.31 77.7562 90.31C77.3962 90.31 77.0729 90.3933 76.7862 90.56C76.4996 90.7267 76.2762 90.96 76.1162 91.26C75.9562 91.56 75.8762 91.9033 75.8762 92.29V92.4C75.8762 92.8 75.9629 93.1533 76.1362 93.46C76.3162 93.76 76.5629 93.9967 76.8762 94.17C77.1962 94.3367 77.5596 94.42 77.9662 94.42C78.2862 94.42 78.5829 94.3633 78.8562 94.25C79.1362 94.1367 79.3762 93.9633 79.5762 93.73L79.9762 94.19C79.7429 94.47 79.4496 94.6833 79.0962 94.83C78.7496 94.9767 78.3662 95.05 77.9462 95.05ZM84.5186 95V88H87.1386C87.7319 88 88.2419 88.0967 88.6686 88.29C89.0953 88.4767 89.4219 88.75 89.6486 89.11C89.8819 89.4633 89.9986 89.8933 89.9986 90.4C89.9986 90.8933 89.8819 91.32 89.6486 91.68C89.4219 92.0333 89.0953 92.3067 88.6686 92.5C88.2419 92.6933 87.7319 92.79 87.1386 92.79H84.9286L85.2586 92.44V95H84.5186ZM85.2586 92.5L84.9286 92.14H87.1186C87.8186 92.14 88.3486 91.99 88.7086 91.69C89.0753 91.3833 89.2586 90.9533 89.2586 90.4C89.2586 89.84 89.0753 89.4067 88.7086 89.1C88.3486 88.7933 87.8186 88.64 87.1186 88.64H84.9286L85.2586 88.29V92.5ZM94.2263 89.7C94.653 89.7 95.0263 89.7833 95.3463 89.95C95.673 90.11 95.9263 90.3567 96.1063 90.69C96.293 91.0233 96.3863 91.4433 96.3863 91.95V95H95.6763V92.02C95.6763 91.4667 95.5363 91.05 95.2563 90.77C94.983 90.4833 94.5963 90.34 94.0963 90.34C93.723 90.34 93.3963 90.4167 93.1163 90.57C92.843 90.7167 92.6297 90.9333 92.4763 91.22C92.3297 91.5 92.2563 91.84 92.2563 92.24V95H91.5463V87.58H92.2563V91.19L92.1163 90.92C92.283 90.54 92.5497 90.2433 92.9163 90.03C93.283 89.81 93.7197 89.7 94.2263 89.7ZM98.3041 95V89.75H98.9841V91.18L98.9141 90.93C99.0608 90.53 99.3075 90.2267 99.6541 90.02C100.001 89.8067 100.431 89.7 100.944 89.7V90.39C100.917 90.39 100.891 90.39 100.864 90.39C100.837 90.3833 100.811 90.38 100.784 90.38C100.231 90.38 99.7975 90.55 99.4841 90.89C99.1708 91.2233 99.0141 91.7 99.0141 92.32V95H98.3041ZM105.139 95V93.84L105.109 93.65V91.71C105.109 91.2633 104.982 90.92 104.729 90.68C104.482 90.44 104.112 90.32 103.619 90.32C103.279 90.32 102.956 90.3767 102.649 90.49C102.342 90.6033 102.082 90.7533 101.869 90.94L101.549 90.41C101.816 90.1833 102.136 90.01 102.509 89.89C102.882 89.7633 103.276 89.7 103.689 89.7C104.369 89.7 104.892 89.87 105.259 90.21C105.632 90.5433 105.819 91.0533 105.819 91.74V95H105.139ZM103.329 95.05C102.936 95.05 102.592 94.9867 102.299 94.86C102.012 94.7267 101.792 94.5467 101.639 94.32C101.486 94.0867 101.409 93.82 101.409 93.52C101.409 93.2467 101.472 93 101.599 92.78C101.732 92.5533 101.946 92.3733 102.239 92.24C102.539 92.1 102.939 92.03 103.439 92.03H105.249V92.56H103.459C102.952 92.56 102.599 92.65 102.399 92.83C102.206 93.01 102.109 93.2333 102.109 93.5C102.109 93.8 102.226 94.04 102.459 94.22C102.692 94.4 103.019 94.49 103.439 94.49C103.839 94.49 104.182 94.4 104.469 94.22C104.762 94.0333 104.976 93.7667 105.109 93.42L105.269 93.91C105.136 94.2567 104.902 94.5333 104.569 94.74C104.242 94.9467 103.829 95.05 103.329 95.05ZM109.157 95.05C108.724 95.05 108.314 94.99 107.927 94.87C107.541 94.7433 107.237 94.5867 107.017 94.4L107.337 93.84C107.551 94 107.824 94.14 108.157 94.26C108.491 94.3733 108.841 94.43 109.207 94.43C109.707 94.43 110.067 94.3533 110.287 94.2C110.507 94.04 110.617 93.83 110.617 93.57C110.617 93.3767 110.554 93.2267 110.427 93.12C110.307 93.0067 110.147 92.9233 109.947 92.87C109.747 92.81 109.524 92.76 109.277 92.72C109.031 92.68 108.784 92.6333 108.537 92.58C108.297 92.5267 108.077 92.45 107.877 92.35C107.677 92.2433 107.514 92.1 107.387 91.92C107.267 91.74 107.207 91.5 107.207 91.2C107.207 90.9133 107.287 90.6567 107.447 90.43C107.607 90.2033 107.841 90.0267 108.147 89.9C108.461 89.7667 108.841 89.7 109.287 89.7C109.627 89.7 109.967 89.7467 110.307 89.84C110.647 89.9267 110.927 90.0433 111.147 90.19L110.837 90.76C110.604 90.6 110.354 90.4867 110.087 90.42C109.821 90.3467 109.554 90.31 109.287 90.31C108.814 90.31 108.464 90.3933 108.237 90.56C108.017 90.72 107.907 90.9267 107.907 91.18C107.907 91.38 107.967 91.5367 108.087 91.65C108.214 91.7633 108.377 91.8533 108.577 91.92C108.784 91.98 109.007 92.03 109.247 92.07C109.494 92.11 109.737 92.16 109.977 92.22C110.224 92.2733 110.447 92.35 110.647 92.45C110.854 92.5433 111.017 92.68 111.137 92.86C111.264 93.0333 111.327 93.2633 111.327 93.55C111.327 93.8567 111.241 94.1233 111.067 94.35C110.901 94.57 110.654 94.7433 110.327 94.87C110.007 94.99 109.617 95.05 109.157 95.05ZM114.86 95.05C114.314 95.05 113.834 94.9367 113.42 94.71C113.007 94.4767 112.684 94.16 112.45 93.76C112.217 93.3533 112.1 92.89 112.1 92.37C112.1 91.85 112.21 91.39 112.43 90.99C112.657 90.59 112.964 90.2767 113.35 90.05C113.744 89.8167 114.184 89.7 114.67 89.7C115.164 89.7 115.6 89.8133 115.98 90.04C116.367 90.26 116.67 90.5733 116.89 90.98C117.11 91.38 117.22 91.8433 117.22 92.37C117.22 92.4033 117.217 92.44 117.21 92.48C117.21 92.5133 117.21 92.55 117.21 92.59H112.64V92.06H116.83L116.55 92.27C116.55 91.89 116.467 91.5533 116.3 91.26C116.14 90.96 115.92 90.7267 115.64 90.56C115.36 90.3933 115.037 90.31 114.67 90.31C114.31 90.31 113.987 90.3933 113.7 90.56C113.414 90.7267 113.19 90.96 113.03 91.26C112.87 91.56 112.79 91.9033 112.79 92.29V92.4C112.79 92.8 112.877 93.1533 113.05 93.46C113.23 93.76 113.477 93.9967 113.79 94.17C114.11 94.3367 114.474 94.42 114.88 94.42C115.2 94.42 115.497 94.3633 115.77 94.25C116.05 94.1367 116.29 93.9633 116.49 93.73L116.89 94.19C116.657 94.47 116.364 94.6833 116.01 94.83C115.664 94.9767 115.28 95.05 114.86 95.05ZM38.0181 112V102.2H39.1661L43.5621 109.606H42.9461L47.2861 102.2H48.4341L48.4481 112H47.1041L47.0901 104.314H47.4121L43.5481 110.81H42.9041L39.0121 104.314H39.3621V112H38.0181ZM54.6792 112.112C53.9512 112.112 53.3259 111.977 52.8032 111.706C52.2806 111.426 51.8792 111.025 51.5992 110.502C51.3286 109.97 51.1932 109.335 51.1932 108.598V104.048H52.5512V108.57C52.5512 109.345 52.7332 109.933 53.0972 110.334C53.4706 110.735 54.0026 110.936 54.6932 110.936C55.3839 110.936 55.9112 110.74 56.2752 110.348C56.6486 109.947 56.8352 109.354 56.8352 108.57V104.048H58.1652V108.598C58.1652 109.335 58.0252 109.97 57.7452 110.502C57.4746 111.025 57.0779 111.426 56.5552 111.706C56.0326 111.977 55.4072 112.112 54.6792 112.112ZM61.8289 112.112C61.3062 112.112 60.8302 112.009 60.4009 111.804C59.9715 111.599 59.6309 111.309 59.3789 110.936L60.2189 110.082C60.4149 110.353 60.6482 110.567 60.9189 110.726C61.1895 110.875 61.4882 110.95 61.8149 110.95C62.6642 110.95 63.0889 110.437 63.0889 109.41V105.168H60.2189V104.048H64.4469V109.312C64.4469 110.245 64.2229 110.945 63.7749 111.412C63.3269 111.879 62.6782 112.112 61.8289 112.112ZM68.2159 107.408H72.4019V108.514H68.2159V107.408ZM68.4399 110.866H73.0459V112H67.0819V104.048H72.8919V105.168H68.4399V110.866ZM80.0301 110.096L79.9601 108.486L84.3421 104.048H85.8541L82.3401 107.744L81.5841 108.528L80.0301 110.096ZM78.8261 112V104.048H80.1841V112H78.8261ZM84.4681 112L81.3041 108.304L82.1861 107.31L86.0781 112H84.4681ZM88.7698 112V108.92L89.0358 109.802L85.5078 104.048H86.9498L89.8618 108.724H89.1198L92.0038 104.048H93.4038L89.8898 109.802L90.1278 108.92V112H88.7698ZM92.8486 112L96.4886 104.048H97.8326L101.487 112H100.115L96.9366 104.762H97.3986L94.1786 112H92.8486ZM94.5146 110.11L94.8786 109.032H99.2466L99.6106 110.11H94.5146ZM106.594 112V104.048H107.756L111.242 109.844H110.71L114.14 104.048H115.316L115.33 112H114.028L114.014 106.134H114.224L111.27 111.048H110.64L107.602 106.134H107.896V112H106.594ZM119.185 107.408H123.371V108.514H119.185V107.408ZM119.409 110.866H124.015V112H118.051V104.048H123.861V105.168H119.409V110.866ZM26.3114 129V122.168H23.5954V121.048H30.3854V122.168H27.6694V129H26.3114ZM35.2489 129.112C34.4276 129.112 33.6903 128.935 33.0369 128.58C32.3836 128.225 31.8656 127.74 31.4829 127.124C31.1096 126.499 30.9229 125.794 30.9229 125.01C30.9229 124.235 31.1096 123.54 31.4829 122.924C31.8656 122.308 32.3836 121.823 33.0369 121.468C33.6903 121.113 34.4276 120.936 35.2489 120.936C36.0796 120.936 36.8169 121.113 37.4609 121.468C38.1143 121.823 38.6276 122.308 39.0009 122.924C39.3836 123.54 39.5749 124.235 39.5749 125.01C39.5749 125.794 39.3836 126.499 39.0009 127.124C38.6276 127.74 38.1143 128.225 37.4609 128.58C36.8169 128.935 36.0796 129.112 35.2489 129.112ZM35.2489 127.936C35.8183 127.936 36.3223 127.81 36.7609 127.558C37.2089 127.306 37.5589 126.961 37.8109 126.522C38.0723 126.074 38.2029 125.575 38.2029 125.024C38.2029 124.455 38.0723 123.955 37.8109 123.526C37.5589 123.087 37.2089 122.742 36.7609 122.49C36.3223 122.238 35.8183 122.112 35.2489 122.112C34.6889 122.112 34.1849 122.238 33.7369 122.49C33.2889 122.733 32.9343 123.073 32.6729 123.512C32.4209 123.951 32.2949 124.455 32.2949 125.024C32.2949 125.575 32.4209 126.074 32.6729 126.522C32.9343 126.961 33.2889 127.306 33.7369 127.558C34.1849 127.81 34.6889 127.936 35.2489 127.936ZM41.5497 129V121.048H42.9077V124.408H47.2617V121.048H48.6197V129H47.2617V125.528H42.9077V129H41.5497ZM55.0985 129V121.048H58.7805C59.7419 121.048 60.4745 121.235 60.9785 121.608C61.4919 121.972 61.7485 122.471 61.7485 123.106C61.7485 123.741 61.5339 124.235 61.1045 124.59C60.6845 124.945 60.1339 125.122 59.4525 125.122L59.6625 124.744C60.4372 124.744 61.0485 124.921 61.4965 125.276C61.9445 125.631 62.1685 126.153 62.1685 126.844C62.1685 127.516 61.9025 128.043 61.3705 128.426C60.8385 128.809 60.0545 129 59.0185 129H55.0985ZM56.4565 127.964H58.9485C59.5459 127.964 60.0032 127.866 60.3205 127.67C60.6379 127.465 60.7965 127.152 60.7965 126.732C60.7965 126.303 60.6379 125.99 60.3205 125.794C60.0032 125.598 59.5459 125.5 58.9485 125.5H56.2325V124.464H58.6545C59.2145 124.464 59.6439 124.361 59.9425 124.156C60.2412 123.951 60.3905 123.652 60.3905 123.26C60.3905 122.868 60.2412 122.574 59.9425 122.378C59.6439 122.182 59.2145 122.084 58.6545 122.084H56.4565V127.964ZM62.7363 129L66.3763 121.048H67.7203L71.3743 129H70.0023L66.8243 121.762H67.2863L64.0663 129H62.7363ZM64.4023 127.11L64.7663 126.032H69.1343L69.4983 127.11H64.4023ZM73.6434 129V122.168H70.9274V121.048H77.7174V122.168H75.0014V129H73.6434ZM77.2695 129L80.9095 121.048H82.2535L85.9075 129H84.5355L81.3575 121.762H81.8195L78.5995 129H77.2695ZM78.9355 127.11L79.2995 126.032H83.6675L84.0315 127.11H78.9355ZM88.4588 127.096L88.3888 125.486L92.7708 121.048H94.2828L90.7688 124.744L90.0128 125.528L88.4588 127.096ZM87.2548 129V121.048H88.6128V129H87.2548ZM92.8968 129L89.7328 125.304L90.6148 124.31L94.5068 129H92.8968ZM99.6962 129V121.048H101.054V124.408H105.408V121.048H106.766V129H105.408V125.528H101.054V129H99.6962ZM113.069 129.112C112.248 129.112 111.511 128.935 110.857 128.58C110.204 128.225 109.686 127.74 109.303 127.124C108.93 126.499 108.743 125.794 108.743 125.01C108.743 124.235 108.93 123.54 109.303 122.924C109.686 122.308 110.204 121.823 110.857 121.468C111.511 121.113 112.248 120.936 113.069 120.936C113.9 120.936 114.637 121.113 115.281 121.468C115.935 121.823 116.448 122.308 116.821 122.924C117.204 123.54 117.395 124.235 117.395 125.01C117.395 125.794 117.204 126.499 116.821 127.124C116.448 127.74 115.935 128.225 115.281 128.58C114.637 128.935 113.9 129.112 113.069 129.112ZM113.069 127.936C113.639 127.936 114.143 127.81 114.581 127.558C115.029 127.306 115.379 126.961 115.631 126.522C115.893 126.074 116.023 125.575 116.023 125.024C116.023 124.455 115.893 123.955 115.631 123.526C115.379 123.087 115.029 122.742 114.581 122.49C114.143 122.238 113.639 122.112 113.069 122.112C112.509 122.112 112.005 122.238 111.557 122.49C111.109 122.733 110.755 123.073 110.493 123.512C110.241 123.951 110.115 124.455 110.115 125.024C110.115 125.575 110.241 126.074 110.493 126.522C110.755 126.961 111.109 127.306 111.557 127.558C112.005 127.81 112.509 127.936 113.069 127.936ZM122.954 129.112C122.133 129.112 121.395 128.935 120.742 128.58C120.089 128.225 119.571 127.74 119.188 127.124C118.815 126.499 118.628 125.794 118.628 125.01C118.628 124.235 118.815 123.54 119.188 122.924C119.571 122.308 120.089 121.823 120.742 121.468C121.395 121.113 122.133 120.936 122.954 120.936C123.785 120.936 124.522 121.113 125.166 121.468C125.819 121.823 126.333 122.308 126.706 122.924C127.089 123.54 127.28 124.235 127.28 125.01C127.28 125.794 127.089 126.499 126.706 127.124C126.333 127.74 125.819 128.225 125.166 128.58C124.522 128.935 123.785 129.112 122.954 129.112ZM122.954 127.936C123.523 127.936 124.027 127.81 124.466 127.558C124.914 127.306 125.264 126.961 125.516 126.522C125.777 126.074 125.908 125.575 125.908 125.024C125.908 124.455 125.777 123.955 125.516 123.526C125.264 123.087 124.914 122.742 124.466 122.49C124.027 122.238 123.523 122.112 122.954 122.112C122.394 122.112 121.89 122.238 121.442 122.49C120.994 122.733 120.639 123.073 120.378 123.512C120.126 123.951 120 124.455 120 125.024C120 125.575 120.126 126.074 120.378 126.522C120.639 126.961 120.994 127.306 121.442 127.558C121.89 127.81 122.394 127.936 122.954 127.936ZM129.255 129V121.048H130.375L135.485 127.32H134.967V121.048H136.325V129H135.205L130.081 122.728H130.613V129H129.255Z" fill="black"/>
<path d="M28.8935 74V61.4H34.0775C35.1935 61.4 36.1475 61.58 36.9395 61.94C37.7435 62.3 38.3615 62.816 38.7935 63.488C39.2255 64.16 39.4415 64.958 39.4415 65.882C39.4415 66.806 39.2255 67.604 38.7935 68.276C38.3615 68.948 37.7435 69.464 36.9395 69.824C36.1475 70.184 35.1935 70.364 34.0775 70.364H30.1895L31.2335 69.266V74H28.8935ZM31.2335 69.518L30.1895 68.384H33.9695C35.0015 68.384 35.7755 68.168 36.2915 67.736C36.8195 67.292 37.0835 66.674 37.0835 65.882C37.0835 65.078 36.8195 64.46 36.2915 64.028C35.7755 63.596 35.0015 63.38 33.9695 63.38H30.1895L31.2335 62.228V69.518ZM41.7782 74V61.4H44.1182V74H41.7782ZM49.6143 71.03L49.4883 68.258L56.0943 61.4H58.7223L53.2323 67.232L51.9363 68.654L49.6143 71.03ZM47.5263 74V61.4H49.8663V74H47.5263ZM56.3103 74L51.4863 68.258L53.0343 66.548L59.0463 74H56.3103ZM58.3126 74L63.9826 61.4H66.2866L71.9746 74H69.5266L64.6486 62.642H65.5846L60.7246 74H58.3126ZM60.9226 71.084L61.5526 69.248H68.3566L68.9866 71.084H60.9226ZM84.3837 74.18C83.4237 74.18 82.5297 74.024 81.7017 73.712C80.8857 73.388 80.1717 72.938 79.5597 72.362C78.9597 71.774 78.4917 71.084 78.1557 70.292C77.8197 69.5 77.6517 68.636 77.6517 67.7C77.6517 66.764 77.8197 65.9 78.1557 65.108C78.4917 64.316 78.9657 63.632 79.5777 63.056C80.1897 62.468 80.9037 62.018 81.7197 61.706C82.5357 61.382 83.4297 61.22 84.4017 61.22C85.4337 61.22 86.3757 61.4 87.2277 61.76C88.0797 62.108 88.7997 62.63 89.3877 63.326L87.8757 64.748C87.4197 64.256 86.9097 63.89 86.3457 63.65C85.7817 63.398 85.1697 63.272 84.5097 63.272C83.8497 63.272 83.2437 63.38 82.6917 63.596C82.1517 63.812 81.6777 64.118 81.2697 64.514C80.8737 64.91 80.5617 65.378 80.3337 65.918C80.1177 66.458 80.0097 67.052 80.0097 67.7C80.0097 68.348 80.1177 68.942 80.3337 69.482C80.5617 70.022 80.8737 70.49 81.2697 70.886C81.6777 71.282 82.1517 71.588 82.6917 71.804C83.2437 72.02 83.8497 72.128 84.5097 72.128C85.1697 72.128 85.7817 72.008 86.3457 71.768C86.9097 71.516 87.4197 71.138 87.8757 70.634L89.3877 72.074C88.7997 72.758 88.0797 73.28 87.2277 73.64C86.3757 74 85.4277 74.18 84.3837 74.18ZM100.486 61.4H102.826V74H100.486V61.4ZM93.9698 74H91.6298V61.4H93.9698V74ZM100.666 68.6H93.7718V66.602H100.666V68.6ZM104.42 74L110.09 61.4H112.394L118.082 74H115.634L110.756 62.642H111.692L106.832 74H104.42ZM107.03 71.084L107.66 69.248H114.464L115.094 71.084H107.03ZM119.684 74V61.4H121.61L129.512 71.102H128.558V61.4H130.88V74H128.954L121.052 64.298H122.006V74H119.684Z" fill="black"/>
<path d="M28.0609 49.7466V45.9946L28.3829 46.8626L24.1689 39.9466H25.6669L29.2089 45.7846H28.3969L31.9529 39.9466H33.3389L29.1389 46.8626L29.4469 45.9946V49.7466H28.0609ZM36.9074 49.8306C36.1607 49.8306 35.498 49.6672 34.9194 49.3406C34.3407 49.0139 33.8834 48.5659 33.5474 47.9966C33.2114 47.4179 33.0434 46.7646 33.0434 46.0366C33.0434 45.2992 33.2114 44.6459 33.5474 44.0766C33.8834 43.5072 34.3407 43.0639 34.9194 42.7466C35.498 42.4199 36.1607 42.2566 36.9074 42.2566C37.6447 42.2566 38.3027 42.4199 38.8814 42.7466C39.4694 43.0639 39.9267 43.5072 40.2534 44.0766C40.5894 44.6366 40.7574 45.2899 40.7574 46.0366C40.7574 46.7739 40.5894 47.4272 40.2534 47.9966C39.9267 48.5659 39.4694 49.0139 38.8814 49.3406C38.3027 49.6672 37.6447 49.8306 36.9074 49.8306ZM36.9074 48.6546C37.3834 48.6546 37.808 48.5472 38.1814 48.3326C38.564 48.1179 38.8627 47.8146 39.0774 47.4226C39.292 47.0212 39.3994 46.5592 39.3994 46.0366C39.3994 45.5046 39.292 45.0472 39.0774 44.6646C38.8627 44.2726 38.564 43.9692 38.1814 43.7546C37.808 43.5399 37.3834 43.4326 36.9074 43.4326C36.4314 43.4326 36.0067 43.5399 35.6334 43.7546C35.26 43.9692 34.9614 44.2726 34.7374 44.6646C34.5134 45.0472 34.4014 45.5046 34.4014 46.0366C34.4014 46.5592 34.5134 47.0212 34.7374 47.4226C34.9614 47.8146 35.26 48.1179 35.6334 48.3326C36.0067 48.5472 36.4314 48.6546 36.9074 48.6546ZM45.7381 49.8306C45.1034 49.8306 44.5434 49.7139 44.0581 49.4806C43.5821 49.2472 43.2088 48.8926 42.9381 48.4166C42.6768 47.9312 42.5461 47.3246 42.5461 46.5966V42.3266H43.8901V46.4426C43.8901 47.1706 44.0628 47.7166 44.4081 48.0806C44.7628 48.4446 45.2574 48.6266 45.8921 48.6266C46.3588 48.6266 46.7648 48.5332 47.1101 48.3466C47.4554 48.1506 47.7214 47.8706 47.9081 47.5066C48.0948 47.1332 48.1881 46.6852 48.1881 46.1626V42.3266H49.5321V49.7466H48.2581V47.7446L48.4681 48.2766C48.2254 48.7712 47.8614 49.1539 47.3761 49.4246C46.8908 49.6952 46.3448 49.8306 45.7381 49.8306ZM59.0845 49.8306C58.3285 49.8306 57.6518 49.6672 57.0545 49.3406C56.4665 49.0139 56.0045 48.5659 55.6685 47.9966C55.3325 47.4272 55.1645 46.7739 55.1645 46.0366C55.1645 45.2992 55.3325 44.6459 55.6685 44.0766C56.0045 43.5072 56.4665 43.0639 57.0545 42.7466C57.6518 42.4199 58.3285 42.2566 59.0845 42.2566C59.7565 42.2566 60.3538 42.3919 60.8765 42.6626C61.4085 42.9239 61.8191 43.3159 62.1085 43.8386L61.0865 44.4966C60.8438 44.1326 60.5451 43.8666 60.1905 43.6986C59.8451 43.5212 59.4718 43.4326 59.0705 43.4326C58.5851 43.4326 58.1511 43.5399 57.7685 43.7546C57.3858 43.9692 57.0825 44.2726 56.8585 44.6646C56.6345 45.0472 56.5225 45.5046 56.5225 46.0366C56.5225 46.5686 56.6345 47.0306 56.8585 47.4226C57.0825 47.8146 57.3858 48.1179 57.7685 48.3326C58.1511 48.5472 58.5851 48.6546 59.0705 48.6546C59.4718 48.6546 59.8451 48.5706 60.1905 48.4026C60.5451 48.2252 60.8438 47.9546 61.0865 47.5906L62.1085 48.2346C61.8191 48.7479 61.4085 49.1446 60.8765 49.4246C60.3538 49.6952 59.7565 49.8306 59.0845 49.8306ZM68.4545 49.7466V48.1786L68.3845 47.8846V45.2106C68.3845 44.6412 68.2165 44.2026 67.8805 43.8946C67.5538 43.5772 67.0592 43.4186 66.3965 43.4186C65.9578 43.4186 65.5285 43.4932 65.1085 43.6426C64.6885 43.7826 64.3338 43.9739 64.0445 44.2166L63.4845 43.2086C63.8672 42.9006 64.3245 42.6672 64.8565 42.5086C65.3978 42.3406 65.9625 42.2566 66.5505 42.2566C67.5678 42.2566 68.3518 42.5039 68.9025 42.9986C69.4532 43.4932 69.7285 44.2492 69.7285 45.2666V49.7466H68.4545ZM66.0185 49.8306C65.4678 49.8306 64.9825 49.7372 64.5625 49.5506C64.1518 49.3639 63.8345 49.1072 63.6105 48.7806C63.3865 48.4446 63.2745 48.0666 63.2745 47.6466C63.2745 47.2452 63.3678 46.8812 63.5545 46.5546C63.7505 46.2279 64.0632 45.9666 64.4925 45.7706C64.9312 45.5746 65.5192 45.4766 66.2565 45.4766H68.6085V46.4426H66.3125C65.6405 46.4426 65.1878 46.5546 64.9545 46.7786C64.7212 47.0026 64.6045 47.2732 64.6045 47.5906C64.6045 47.9546 64.7492 48.2486 65.0385 48.4726C65.3278 48.6872 65.7292 48.7946 66.2425 48.7946C66.7465 48.7946 67.1852 48.6826 67.5585 48.4586C67.9412 48.2346 68.2165 47.9079 68.3845 47.4786L68.6505 48.4026C68.4732 48.8412 68.1605 49.1912 67.7125 49.4526C67.2645 49.7046 66.6998 49.8306 66.0185 49.8306ZM76.1777 42.2566C76.7844 42.2566 77.3164 42.3732 77.7737 42.6066C78.2404 42.8399 78.6044 43.1946 78.8657 43.6706C79.127 44.1466 79.2577 44.7486 79.2577 45.4766V49.7466H77.9137V45.6306C77.9137 44.9119 77.7364 44.3706 77.3817 44.0066C77.0364 43.6426 76.5464 43.4606 75.9117 43.4606C75.4357 43.4606 75.0204 43.5539 74.6657 43.7406C74.311 43.9272 74.0357 44.2026 73.8397 44.5666C73.653 44.9306 73.5597 45.3832 73.5597 45.9246V49.7466H72.2157V42.3266H73.5037V44.3286L73.2937 43.7966C73.5364 43.3112 73.9097 42.9332 74.4137 42.6626C74.9177 42.3919 75.5057 42.2566 76.1777 42.2566ZM88.7388 49.8306C87.9828 49.8306 87.3061 49.6672 86.7088 49.3406C86.1208 49.0139 85.6588 48.5659 85.3228 47.9966C84.9868 47.4272 84.8188 46.7739 84.8188 46.0366C84.8188 45.2992 84.9868 44.6459 85.3228 44.0766C85.6588 43.5072 86.1208 43.0639 86.7088 42.7466C87.3061 42.4199 87.9828 42.2566 88.7388 42.2566C89.4108 42.2566 90.0081 42.3919 90.5308 42.6626C91.0628 42.9239 91.4734 43.3159 91.7628 43.8386L90.7408 44.4966C90.4981 44.1326 90.1994 43.8666 89.8448 43.6986C89.4994 43.5212 89.1261 43.4326 88.7248 43.4326C88.2394 43.4326 87.8054 43.5399 87.4228 43.7546C87.0401 43.9692 86.7368 44.2726 86.5128 44.6646C86.2888 45.0472 86.1768 45.5046 86.1768 46.0366C86.1768 46.5686 86.2888 47.0306 86.5128 47.4226C86.7368 47.8146 87.0401 48.1179 87.4228 48.3326C87.8054 48.5472 88.2394 48.6546 88.7248 48.6546C89.1261 48.6546 89.4994 48.5706 89.8448 48.4026C90.1994 48.2252 90.4981 47.9546 90.7408 47.5906L91.7628 48.2346C91.4734 48.7479 91.0628 49.1446 90.5308 49.4246C90.0081 49.6952 89.4108 49.8306 88.7388 49.8306ZM98.1088 49.7466V48.1786L98.0388 47.8846V45.2106C98.0388 44.6412 97.8708 44.2026 97.5348 43.8946C97.2081 43.5772 96.7135 43.4186 96.0508 43.4186C95.6121 43.4186 95.1828 43.4932 94.7628 43.6426C94.3428 43.7826 93.9881 43.9739 93.6988 44.2166L93.1388 43.2086C93.5215 42.9006 93.9788 42.6672 94.5108 42.5086C95.0521 42.3406 95.6168 42.2566 96.2048 42.2566C97.2221 42.2566 98.0061 42.5039 98.5568 42.9986C99.1075 43.4932 99.3828 44.2492 99.3828 45.2666V49.7466H98.1088ZM95.6728 49.8306C95.1221 49.8306 94.6368 49.7372 94.2168 49.5506C93.8061 49.3639 93.4888 49.1072 93.2648 48.7806C93.0408 48.4446 92.9288 48.0666 92.9288 47.6466C92.9288 47.2452 93.0221 46.8812 93.2088 46.5546C93.4048 46.2279 93.7175 45.9666 94.1468 45.7706C94.5855 45.5746 95.1735 45.4766 95.9108 45.4766H98.2628V46.4426H95.9668C95.2948 46.4426 94.8421 46.5546 94.6088 46.7786C94.3755 47.0026 94.2588 47.2732 94.2588 47.5906C94.2588 47.9546 94.4035 48.2486 94.6928 48.4726C94.9821 48.6872 95.3835 48.7946 95.8968 48.7946C96.4008 48.7946 96.8395 48.6826 97.2128 48.4586C97.5955 48.2346 97.8708 47.9079 98.0388 47.4786L98.3048 48.4026C98.1275 48.8412 97.8148 49.1912 97.3668 49.4526C96.9188 49.7046 96.3541 49.8306 95.6728 49.8306ZM101.87 49.7466V39.3586H103.214V49.7466H101.87ZM105.78 49.7466V39.3586H107.124V49.7466H105.78ZM122.732 42.2566C123.329 42.2566 123.857 42.3732 124.314 42.6066C124.771 42.8399 125.126 43.1946 125.378 43.6706C125.639 44.1466 125.77 44.7486 125.77 45.4766V49.7466H124.426V45.6306C124.426 44.9119 124.258 44.3706 123.922 44.0066C123.586 43.6426 123.115 43.4606 122.508 43.4606C122.06 43.4606 121.668 43.5539 121.332 43.7406C120.996 43.9272 120.735 44.2026 120.548 44.5666C120.371 44.9306 120.282 45.3832 120.282 45.9246V49.7466H118.938V45.6306C118.938 44.9119 118.77 44.3706 118.434 44.0066C118.107 43.6426 117.636 43.4606 117.02 43.4606C116.581 43.4606 116.194 43.5539 115.858 43.7406C115.522 43.9272 115.261 44.2026 115.074 44.5666C114.887 44.9306 114.794 45.3832 114.794 45.9246V49.7466H113.45V42.3266H114.738V44.3006L114.528 43.7966C114.761 43.3112 115.121 42.9332 115.606 42.6626C116.091 42.3919 116.656 42.2566 117.3 42.2566C118.009 42.2566 118.621 42.4339 119.134 42.7886C119.647 43.1339 119.983 43.6612 120.142 44.3706L119.596 44.1466C119.82 43.5772 120.212 43.1199 120.772 42.7746C121.332 42.4292 121.985 42.2566 122.732 42.2566ZM131.547 49.8306C130.754 49.8306 130.054 49.6672 129.447 49.3406C128.85 49.0139 128.383 48.5659 128.047 47.9966C127.72 47.4272 127.557 46.7739 127.557 46.0366C127.557 45.2992 127.716 44.6459 128.033 44.0766C128.36 43.5072 128.803 43.0639 129.363 42.7466C129.932 42.4199 130.572 42.2566 131.281 42.2566C132 42.2566 132.634 42.4152 133.185 42.7326C133.736 43.0499 134.165 43.4979 134.473 44.0766C134.79 44.6459 134.949 45.3132 134.949 46.0786C134.949 46.1346 134.944 46.1999 134.935 46.2746C134.935 46.3492 134.93 46.4192 134.921 46.4846H128.607V45.5186H134.221L133.675 45.8546C133.684 45.3786 133.586 44.9539 133.381 44.5806C133.176 44.2072 132.891 43.9179 132.527 43.7126C132.172 43.4979 131.757 43.3906 131.281 43.3906C130.814 43.3906 130.399 43.4979 130.035 43.7126C129.671 43.9179 129.386 44.2119 129.181 44.5946C128.976 44.9679 128.873 45.3972 128.873 45.8826V46.1066C128.873 46.6012 128.985 47.0446 129.209 47.4366C129.442 47.8192 129.764 48.1179 130.175 48.3326C130.586 48.5472 131.057 48.6546 131.589 48.6546C132.028 48.6546 132.424 48.5799 132.779 48.4306C133.143 48.2812 133.46 48.0572 133.731 47.7586L134.473 48.6266C134.137 49.0186 133.717 49.3172 133.213 49.5226C132.718 49.7279 132.163 49.8306 131.547 49.8306Z" fill="black"/>
<path d="M124.009 144.32L36.3109 150.07L33.6567 158.033L34.4309 165L122.018 159.581L123.677 157.038L122.571 152.503L124.009 144.32Z" fill="#B2B8BD" fill-opacity="0.9"/>
<path style="mix-blend-mode:multiply" d="M124.009 144.32L36.3109 150.07L33.6567 158.033L34.4309 165L122.018 159.581L123.677 157.038L122.571 152.503L124.009 144.32Z" fill="url(#paint0_linear_318_1253)" fill-opacity="0.2"/>
<path d="M123.787 1.99062L35.6472 0L35.0942 14.5979L122.571 17.5838L122.018 11.059L125.888 3.53887L123.787 1.99062Z" fill="#B2B8BD" fill-opacity="0.9"/>
<path style="mix-blend-mode:multiply" d="M123.787 1.99062L35.6472 0L35.0942 14.5979L122.571 17.5838L122.018 11.059L125.888 3.53887L123.787 1.99062Z" fill="url(#paint1_linear_318_1253)" fill-opacity="0.1"/>
<defs>
<filter id="filter0_d_318_1253" x="0.258713" y="8.84715" width="151.508" height="147.748" filterUnits="userSpaceOnUse" color-interpolation-filters="sRGB">
<feFlood flood-opacity="0" result="BackgroundImageFix"/>
<feColorMatrix in="SourceAlpha" type="matrix" values="0 0 0 0 0 0 0 0 0 0 0 0 0 0 0 0 0 0 127 0" result="hardAlpha"/>
<feMorphology radius="2.87533" operator="erode" in="SourceAlpha" result="effect1_dropShadow_318_1253"/>
<feOffset dx="-5.75067"/>
<feGaussianBlur stdDeviation="2.43298"/>
<feComposite in2="hardAlpha" operator="out"/>
<feColorMatrix type="matrix" values="0 0 0 0 0 0 0 0 0 0 0 0 0 0 0 0 0 0 0.25 0"/>
<feBlend mode="normal" in2="BackgroundImageFix" result="effect1_dropShadow_318_1253"/>
<feBlend mode="normal" in="SourceGraphic" in2="effect1_dropShadow_318_1253" result="shape"/>
</filter>
<linearGradient id="paint0_linear_318_1253" x1="78.8327" y1="144.32" x2="78.8327" y2="165" gradientUnits="userSpaceOnUse">
<stop offset="0.3125" stop-opacity="0"/>
<stop offset="0.5"/>
<stop offset="0.8125" stop-color="white"/>
</linearGradient>
<linearGradient id="paint1_linear_318_1253" x1="80.4914" y1="0" x2="80.4914" y2="17.5838" gradientUnits="userSpaceOnUse">
<stop offset="0.0625" stop-color="white"/>
<stop offset="0.526042"/>
<stop offset="1" stop-opacity="0"/>
</linearGradient>
</defs>
</svg>
